<svg width="100" height="100" viewBox="0 0 100 100" fill="none" xmlns="http://www.w3.org/2000/svg">
    <path fill-rule="evenodd" clip-rule="evenodd"
          d="M61.5583 36.0314L63.7979 38.4479C64.1849 38.8655 64.4 39.4139 64.4 39.9833V67.3875C64.4 68.635 63.3887 69.6463 62.1412 69.6463H37.2941C36.0466 69.6463 35.0353 68.635 35.0353 67.3875V31.6471C35.0353 30.3995 36.0466 29.3882 37.2941 29.3882H54.4149C55.0437 29.3882 55.6441 29.6504 56.0716 30.1116L61.5467 36.019H61.5583V36.0314ZM55.1097 40.2816C54.4859 40.2816 53.9803 39.7759 53.9803 39.1522V33.6703L53.6752 33.3412H38.9882V65.6934H60.4471V40.6477L60.1078 40.2816H55.1097Z"
          fill="black"/>
    <path fill-rule="evenodd" clip-rule="evenodd"
          d="M49.7176 2C50.8092 2 51.6941 2.8849 51.6941 3.97647V11.9331C71.0167 12.9275 86.5078 28.4186 87.5022 47.7412H96.0235C97.1151 47.7412 98 48.6261 98 49.7176C98 50.8092 97.1151 51.6941 96.0235 51.6941H87.5022C86.5078 71.0167 71.0167 86.5078 51.6941 87.5022V96.0235C51.6941 97.1151 50.8092 98 49.7176 98C48.6261 98 47.7412 97.1151 47.7412 96.0235V87.5022C28.4186 86.5078 12.9275 71.0167 11.9331 51.6941H3.97647C2.8849 51.6941 2 50.8092 2 49.7176C2 48.6261 2.8849 47.7412 3.97647 47.7412H11.9331C12.9275 28.4186 28.4186 12.9275 47.7412 11.9331V3.97647C47.7412 2.8849 48.6261 2 49.7176 2ZM83.5433 47.7412H75.6941C74.6025 47.7412 73.7177 48.6261 73.7177 49.7176C73.7177 50.8092 74.6025 51.6941 75.6941 51.6941H83.5433C82.5575 68.8329 68.8329 82.5575 51.6941 83.5433V75.6941C51.6941 74.6025 50.8092 73.7177 49.7176 73.7177C48.6261 73.7177 47.7412 74.6025 47.7412 75.6941V83.5433C30.6024 82.5575 16.8778 68.8329 15.892 51.6941H24.3059C25.3975 51.6941 26.2824 50.8092 26.2824 49.7176C26.2824 48.6261 25.3975 47.7412 24.3059 47.7412H15.892C16.8778 30.6024 30.6024 16.8778 47.7412 15.892V24.3059C47.7412 25.3975 48.6261 26.2824 49.7176 26.2824C50.8092 26.2824 51.6941 25.3975 51.6941 24.3059V15.892C68.8329 16.8778 82.5575 30.6024 83.5433 47.7412Z"
          fill="black"/>
</svg>